<?xml version='1.0' encoding='utf-8'?>
<svg xmlns="http://www.w3.org/2000/svg" width="13in" height="18in" version="1.1" style="shape-rendering:geometricPrecision; text-rendering:geometricPrecision; image-rendering:optimizeQuality; fill-rule:evenodd; clip-rule:evenodd" viewBox="0 0 13000 18000"> <defs> <style type="text/css">  .fil2 {fill:#EEA326} .fil0 {fill:#FCD17C} .fil1 {fill:#FFBD3A}  </style> </defs> <g id="Layer_x0020_1"> <metadata id="CorelCorpID_0Corel-Layer"/> <path class="fil0" d="M55038 36196c176,-106 766,-54 1001,-54 1038,0 922,-165 922,1160 0,1100 112,963 -1122,963 -1076,0 -942,123 -942,-1162 0,-251 -85,-772 142,-908zm5220 -5195c165,-75 814,-32 1039,-32 261,0 731,-86 819,213 41,138 17,852 17,1049 0,246 85,740 -182,841 -135,51 -858,23 -1055,23 -962,0 -827,95 -827,-1260 0,-301 -96,-704 190,-834zm-10356 1c192,-74 798,-34 1040,-34 983,0 847,-88 847,1223 0,1046 116,904 -1208,904 -983,0 -856,148 -856,-1221 0,-262 -105,-764 178,-872zm4463 -2241c129,3 451,-147 551,-226 328,-256 340,-129 748,-148l710 0c202,9 317,-55 478,75l632 250c45,-462 477,-330 884,-330 1354,0 1178,-138 1178,1155 0,308 120,832 -221,962l-66 62 165 473c172,108 118,345 126,541l-3 611c-13,279 118,781 -203,894l-210 422c112,83 47,25 187,67 240,89 226,199 227,444 5,1967 236,1664 -1421,1670 -660,2 -611,27 -648,-589l-522 190c10,569 -562,399 -1038,399 -508,0 -1028,174 -1021,-431l-523 -240c-11,722 -36,671 -744,671 -254,0 -1130,79 -1265,-103 -99,-134 -54,-1066 -54,-1288 0,-663 -93,-694 581,-743l-190 -457c-557,18 -391,-579 -391,-1018 0,-378 -149,-1067 309,-1099l150 -444 -247 -36c-339,-155 -213,-679 -213,-996 0,-1281 -187,-1115 1279,-1116 359,0 812,-108 774,379zm668 -2911c177,-106 771,-54 1007,-54 1051,0 922,-109 922,1167 0,1092 141,960 -1122,960 -1078,0 -942,117 -942,-1158 0,-243 -82,-783 136,-915zm-899 -42c348,114 239,540 239,877 0,1366 133,1237 -943,1237 -1277,0 -1159,293 -1115,-1771 -166,70 -403,247 -524,378 -6,263 -2,526 -2,789 1,280 45,410 -171,599l-1161 6c-113,111 -264,320 -308,468 269,-31 633,-10 914,-11 223,0 621,-76 703,182 39,121 42,1631 4,1751 -85,270 -477,193 -708,193 -1165,-1 -1340,127 -1339,-455 0,-281 0,-562 1,-842 -443,992 -516,1551 -516,2663 0,906 53,1926 516,2712 3,-1033 -101,-1033 656,-1031 653,2 1344,-123 1404,262 22,140 18,1536 -9,1653 -64,280 -387,213 -632,212 -281,-1 -566,-4 -846,3l362 455c1288,21 1104,-138 1132,1120 122,131 358,305 524,376 -37,-1758 -224,-1487 1437,-1495 775,-4 622,177 622,883 0,695 115,1121 -243,1232l-501 19c459,357 1849,443 2451,445 756,2 1732,-109 2388,-454 -889,-5 -984,184 -983,-726 1,-639 -124,-1341 279,-1394 208,-28 1525,-30 1651,44 219,129 141,1250 127,1537 163,-26 378,-209 516,-300l23 -1072c113,-268 303,-213 575,-212 239,1 479,4 717,-2 115,-74 291,-330 340,-460 -312,6 -625,2 -937,2 -262,0 -629,80 -697,-223 -34,-152 -26,-1653 23,-1756 104,-219 541,-149 754,-149 1553,1 1244,-204 1280,1394 244,-235 588,-1536 638,-1916 -200,-145 -118,-786 -118,-1041 0,-251 -87,-844 139,-973 11,-405 -388,-1889 -663,-2162 2,332 0,664 0,997 2,785 13,654 -1237,655 -222,0 -680,72 -792,-148 -68,-134 -66,-1705 6,-1836 119,-217 595,-142 826,-142 322,0 643,-1 965,1l-327 -458c-285,-10 -1315,89 -1455,-118 -92,-136 -57,-1212 -43,-1433 -152,-103 -361,-280 -537,-320 21,301 92,1662 -99,1807 -142,108 -1680,109 -1832,9 -185,-122 -123,-597 -123,-829 0,-1198 -148,-1248 682,-1246 297,1 634,-15 924,4 -365,-154 -707,-394 -1175,-467 -164,3 -248,29 -355,-99 -174,-52 -482,-159 -634,-72 -134,280 -757,174 -1047,174 -279,0 -847,106 -963,-196 -166,22 -377,56 -535,104 -377,113 -1232,359 -1390,533l1144 31z"/> <path class="fil1" d="M54915 25140c180,-5 174,85 481,84 174,-1 348,-1 522,-1 739,0 649,74 971,-129l36 68c152,-87 460,19 634,72l355 99c468,72 810,313 1175,467 159,57 337,131 448,256 176,40 385,217 537,320l110 107c-3,278 -62,1100 53,1287 261,109 944,11 1279,49l56 108 327 458c81,153 199,305 232,475 275,273 674,1757 663,2162 11,26 -28,834 -28,973 0,282 34,795 6,1041 -50,380 -394,1680 -638,1916l-106 221c-53,-483 57,-918 -437,-1250 -300,-202 -1058,-376 -1356,-202 -103,151 -52,716 -52,929 0,1343 -133,802 1609,931l-80 102c-50,130 -225,386 -340,460l-85 161c-235,32 -795,-146 -1037,5 -203,225 45,797 -115,1072 -86,-83 -34,30 -64,-115l9 -910 -23 1072c-138,92 -353,275 -516,300l-87 79c-163,-381 209,-744 -425,-1276 -287,-241 -1084,-394 -1383,-218 -94,156 -92,1637 5,1775 165,138 850,62 1102,70l-285 109c-656,345 -1632,457 -2388,454 -602,-2 -1992,-88 -2451,-445l501 -19c-365,19 -550,48 -847,-102 982,-24 1032,240 976,-890 -42,-845 -1136,-1186 -1804,-968 -81,367 -2,995 -42,1414l-98 -73c-166,-71 -403,-244 -524,-376 -176,-79 -131,-165 -214,-348 -62,-136 -137,-219 -238,-320 -265,-266 -590,-214 -680,-453l-362 -455 -60 -108c402,-53 1048,52 1401,-45 134,-476 70,-1155 -294,-1520 -303,-304 -1119,-475 -1459,-292 -100,211 -40,844 -55,1118l-106 -253c-463,-786 -516,-1805 -516,-2712 0,-1113 73,-1671 516,-2663l113 -251c8,302 -53,1166 46,1386 72,77 1636,107 1744,-17 66,-77 194,-954 -223,-1446 -368,-435 -845,-333 -1327,-397l72 -93c43,-148 195,-357 308,-468l63 -107c279,-26 894,62 1105,-63 160,-260 -1,-845 10,-1140l156 -85c121,-131 358,-308 524,-378l105 -63c37,482 -57,1255 34,1683 215,69 1573,82 1748,-10 168,-280 72,-1107 -182,-1420 -344,-424 -772,-422 -1295,-432 239,-168 350,-112 666,-111 239,0 509,-12 744,9l-1144 -31c158,-174 1013,-420 1390,-533 159,-47 369,-82 535,-104zm-6132 7409c327,3939 3891,6925 7887,6571 4018,-357 6918,-3925 6576,-7861 -345,-3965 -3841,-6921 -7876,-6584 -4039,338 -6915,3926 -6587,7874z"/> <path class="fil1" d="M55746 28800c1720,-160 3198,1138 3357,2813 161,1693 -1060,3218 -2787,3381 -1721,163 -3259,-1106 -3407,-2805 -148,-1691 1119,-3229 2837,-3389zm-830 -265c-100,79 -422,229 -551,226 -90,120 -156,131 -291,210 -270,-189 -256,-300 -651,-416 -255,-75 -715,-96 -963,-15 -56,201 -70,1630 5,1786 201,149 201,-3 358,117 -100,99 -136,72 -298,51l247 36 -150 444c-83,265 -198,-8 -196,464l-1 1311c19,359 171,98 278,342l190 457 62 104c-206,28 -338,-30 -493,84 -72,153 -56,1591 -3,1792 208,66 1567,82 1733,-7 106,-140 68,-348 62,-520 77,-30 32,-26 120,10l523 240 107 20c42,427 355,294 753,294 263,0 795,34 1022,-27l92 -238 84 -17 522 -190 105 -42c93,573 -225,514 904,514 885,0 947,143 943,-521 -1,-181 17,-367 -28,-543 -101,-387 -291,-411 -463,-645l182 -300 198 13c-140,-42 -75,16 -187,-67l210 -422c21,-157 36,-94 71,-219 20,-70 22,-160 34,-239 23,-143 32,-335 98,-436l3 -611c-85,-122 -103,-369 -126,-541l-165 -473 66 -62 -125 -53c247,-197 251,-4 233,-870 -13,-592 -491,-1003 -1065,-1068 -799,-91 -707,79 -807,245l-77 -40 -632 -250 -478 -75 -710 0 -748 148z"/> <path class="fil2" d="M48784 32549c-328,-3947 2548,-7536 6587,-7874 4035,-338 7531,2619 7876,6584 343,3936 -2558,7504 -6576,7861 -3996,355 -7560,-2632 -7887,-6571zm14761 -925l0 342c-37,2015 -674,3633 -2083,5144 -1325,1421 -3296,2240 -5234,2326 -4087,181 -7723,-3304 -7736,-7319 -7,-2177 598,-3823 2089,-5430 1382,-1490 3237,-2227 5258,-2298 4096,-145 7637,3205 7706,7236z"/> <path class="fil2" d="M58808 32192c-126,802 -319,1317 -954,1871 -1845,1613 -4939,140 -4660,-2500 155,-1470 1638,-2690 3139,-2475 1512,217 2717,1565 2475,3103zm-3063 -3392c-1718,160 -2985,1698 -2837,3389 149,1699 1686,2968 3407,2805 1727,-163 2948,-1687 2787,-3381 -159,-1675 -1637,-2973 -3357,-2813z"/> <path class="fil1" d="M49871 31135c-68,233 -68,1606 10,1822 243,51 1526,55 1747,-9 151,-411 69,-1191 -274,-1520 -304,-291 -1126,-488 -1483,-293z"/> <path class="fil1" d="M55066 27764c183,91 1529,78 1749,8 272,-1180 -339,-1990 -1584,-1860 -297,31 -222,239 -221,496 2,301 -66,1155 55,1356z"/> <path class="fil1" d="M60220 30362c201,59 1666,89 1757,-32 0,0 421,-1524 -899,-1802 -188,-40 -780,-84 -867,55 -69,110 -45,1616 9,1779z"/> <path class="fil1" d="M55060 38113c139,56 1663,106 1756,-41 58,-92 41,-747 21,-884 -72,-506 -487,-818 -966,-908 -197,-37 -737,-104 -836,70 -68,120 -42,1622 25,1763z"/> <path class="fil1" d="M60256 32948c79,39 1652,118 1740,-64 45,-94 32,-751 12,-882 -162,-1034 -1699,-1064 -1806,-815 -6,13 -95,1588 55,1762z"/> <path class="fil1" d="M57645 27752c146,95 1660,109 1748,-18 25,-35 237,-977 -298,-1490 -286,-274 -1298,-506 -1464,-246 -83,130 -66,1631 14,1754z"/> <path class="fil2" d="M60256 32948c-150,-174 -60,-1749 -55,-1762 107,-249 1644,-218 1806,815 20,130 33,788 -12,882 -87,182 -1660,103 -1740,64zm2 -1947c-285,130 -190,533 -190,834 0,1355 -135,1261 827,1260 196,0 920,28 1055,-23 267,-102 182,-595 182,-841 0,-197 24,-912 -17,-1049 -88,-300 -558,-213 -819,-213 -225,0 -874,-43 -1039,32z"/> <path class="fil2" d="M49871 31135c356,-194 1179,2 1483,293 343,329 425,1109 274,1520 -221,64 -1504,60 -1747,9 -78,-216 -78,-1590 -10,-1822zm31 -132c-283,109 -178,611 -178,872 0,1369 -127,1221 856,1221 1324,0 1208,142 1208,-904 0,-1311 136,-1223 -847,-1223 -242,0 -847,-40 -1040,34z"/> <path class="fil2" d="M55066 27764c-122,-201 -53,-1056 -55,-1356 -2,-257 -76,-465 221,-496 1244,-130 1856,680 1584,1860 -220,70 -1566,83 -1749,-8zm-34 -1914c-218,131 -136,672 -136,915 0,1275 -136,1158 942,1158 1264,0 1122,132 1122,-960 0,-1276 129,-1167 -922,-1167 -235,0 -830,-52 -1007,54z"/> <path class="fil2" d="M55060 38113c-67,-141 -93,-1643 -25,-1763 99,-174 639,-107 836,-70 479,89 894,402 966,908 19,137 37,793 -21,884 -93,147 -1617,97 -1756,41zm-22 -1916c-227,136 -142,657 -142,908 0,1285 -134,1162 942,1162 1234,0 1122,136 1122,-963 0,-1324 116,-1160 -922,-1160 -234,0 -825,-52 -1001,54z"/> <path class="fil2" d="M57645 27752c-80,-123 -97,-1624 -14,-1754 167,-261 1178,-29 1464,246 535,513 322,1455 298,1490 -88,127 -1602,113 -1748,18zm1893 -1697c-110,-125 -289,-199 -448,-256 -290,-18 -628,-3 -924,-4 -830,-2 -682,48 -682,1246 0,231 -62,707 123,829 153,101 1690,100 1832,-9 191,-145 120,-1506 99,-1807z"/> <path class="fil2" d="M60220 30362c-54,-163 -79,-1669 -9,-1779 88,-139 680,-94 867,-55 1321,278 899,1802 899,1802 -92,121 -1557,91 -1757,32zm1912 -1504c-32,-169 -150,-322 -232,-475 -322,-2 -643,-1 -965,-1 -232,0 -707,-75 -826,142 -72,131 -74,1702 -6,1836 112,220 570,148 792,148 1250,0 1239,130 1237,-655 -1,-332 2,-665 0,-997z"/> <path class="fil2" d="M52315 26152c-43,2064 -162,1771 1115,1771 1076,0 943,128 943,-1237 0,-337 109,-763 -239,-877 -235,-21 -505,-8 -744,-9 -316,0 -426,-57 -666,111 522,10 950,8 1295,432 254,312 350,1140 182,1420 -174,91 -1532,78 -1748,10 -91,-428 4,-1201 -34,-1683l-105 63z"/> <path class="fil2" d="M61712 35681l80 -102c-1742,-129 -1609,413 -1609,-931 0,-213 -50,-778 52,-929 299,-174 1056,0 1356,202 494,332 384,767 437,1250l106 -221c-36,-1598 273,-1394 -1280,-1394 -213,0 -651,-70 -754,149 -49,103 -57,1603 -23,1756 68,303 434,223 697,223 312,0 625,3 937,-2z"/> <path class="fil2" d="M49724 29212c-1,280 -1,562 -1,842 -1,582 174,454 1339,455 230,0 623,77 708,-193 38,-120 35,-1630 -4,-1751 -83,-258 -480,-183 -703,-182 -281,0 -644,-20 -914,11l-72 93c482,64 959,-38 1327,397 417,493 289,1370 223,1446 -107,125 -1672,94 -1744,17 -99,-220 -38,-1084 -46,-1386l-113 251z"/> <path class="fil2" d="M58467 38267l285 -109c-253,-9 -937,68 -1102,-70 -97,-139 -99,-1619 -5,-1775 299,-176 1096,-23 1383,218 634,532 261,895 425,1276l87 -79c14,-287 92,-1407 -127,-1537 -126,-74 -1443,-72 -1651,-44 -403,53 -279,755 -279,1394 -1,911 94,722 983,726z"/> <path class="fil2" d="M49724 34587l106 253c15,-274 -45,-907 55,-1118 340,-183 1156,-12 1459,292 364,365 428,1044 294,1520 -353,97 -1000,-8 -1401,45l60 108c280,-7 565,-4 846,-3 245,1 568,68 632,-212 27,-117 31,-1513 9,-1653 -59,-385 -751,-260 -1404,-262 -756,-2 -653,-3 -656,1031z"/> <path class="fil2" d="M52315 37637l98 73c40,-419 -40,-1047 42,-1414 668,-218 1762,124 1804,968 56,1130 6,866 -976,890 297,150 482,121 847,102 359,-111 243,-537 243,-1232 0,-706 153,-887 -622,-883 -1660,8 -1474,-263 -1437,1495z"/> <path class="fil2" d="M57482 28712l77 40c100,-166 8,-336 807,-245 573,65 1052,477 1065,1068 19,866 14,673 -233,870l125 53c341,-130 221,-654 221,-962 0,-1293 176,-1155 -1178,-1155 -408,0 -839,-132 -884,330z"/> <path class="fil2" d="M57478 35094c37,616 -11,591 648,589 1657,-6 1425,297 1421,-1670 -1,-245 14,-355 -227,-444l-198 -13 -182 300c172,233 362,257 463,645 46,176 27,362 28,543 4,665 -58,521 -943,521 -1129,0 -811,59 -904,-514l-105 42z"/> <path class="fil2" d="M52525 30494c163,21 198,48 298,-51 -156,-120 -157,32 -358,-117 -75,-156 -61,-1585 -5,-1786 247,-81 708,-60 963,15 395,116 381,227 651,416 135,-79 201,-90 291,-210 38,-487 -415,-379 -774,-379 -1466,1 -1279,-165 -1279,1116 0,317 -126,841 213,996z"/> <path class="fil2" d="M54374 35012c-88,-36 -44,-40 -120,-10 6,172 44,380 -62,520 -166,89 -1525,74 -1733,7 -54,-201 -70,-1638 3,-1792 156,-114 287,-56 493,-84l-62 -104c-674,49 -581,80 -581,743 0,222 -45,1154 54,1288 135,182 1010,103 1265,103 707,0 733,51 744,-671z"/> <path class="fil2" d="M51790 37261c-28,-1258 156,-1099 -1132,-1120 90,239 415,187 680,453 101,101 176,184 238,320 83,182 38,269 214,348z"/> <path class="fil2" d="M61574 27926l-56 -108c-335,-38 -1018,60 -1279,-49 -116,-187 -56,-1008 -53,-1287l-110 -107c-14,221 -49,1297 43,1433 140,207 1171,108 1455,118z"/> <path class="fil2" d="M56956 35284l-84 17 -92 238c-228,61 -759,27 -1022,27 -398,0 -711,133 -753,-294l-107 -20c-8,605 513,431 1021,431 476,0 1048,170 1038,-399z"/> <path class="fil2" d="M52703 33091c-107,-244 -258,17 -278,-342l1 -1311c-2,-472 113,-199 196,-464 -459,32 -309,721 -309,1099 0,440 -166,1037 391,1018z"/> <path class="fil2" d="M50456 27925l1161 -6c217,-189 172,-319 171,-599 -1,-263 -4,-527 2,-789l-156 85c-11,296 150,880 -10,1140 -210,125 -826,36 -1105,63l-63 107z"/> <path class="fil2" d="M60080 36354l-9 910c30,145 -21,32 64,115 160,-275 -88,-847 115,-1072 241,-150 801,27 1037,-5l85 -161c-239,6 -478,3 -717,2 -272,-1 -462,-56 -575,212z"/> <path class="fil2" d="M62774 33035c28,-246 -6,-758 -6,-1041 0,-139 39,-948 28,-973 -226,130 -139,723 -139,973 0,255 -82,895 118,1041z"/> <path class="fil2" d="M54915 25140c116,302 684,196 963,196 290,0 913,106 1047,-174l-36 -68c-322,203 -231,129 -971,129 -174,0 -348,0 -522,1 -307,2 -301,-89 -481,-84z"/> <path class="fil2" d="M59342 33080c321,-113 190,-615 203,-894 -66,101 -75,294 -98,436 -12,79 -15,168 -34,239 -35,125 -50,62 -71,219z"/> <path class="fil2" d="M54916 28536l748 -148c-408,18 -420,-108 -748,148z"/> <path class="fil2" d="M59548 31576c-8,-196 46,-433 -126,-541 22,172 40,419 126,541z"/> <path class="fil2" d="M56851 28463c-160,-130 -276,-67 -478,-75l478 75z"/> <path class="fil2" d="M57915 25333l-355 -99c107,127 191,102 355,99z"/> </g> </svg>