<?xml version='1.0' encoding='utf-8'?>
<svg xmlns="http://www.w3.org/2000/svg" width="13in" height="18in" version="1.1" style="shape-rendering:geometricPrecision; text-rendering:geometricPrecision; image-rendering:optimizeQuality; fill-rule:evenodd; clip-rule:evenodd" viewBox="0 0 13000 18000"> <defs> <style type="text/css">  .fil2 {fill:#EEA326} .fil1 {fill:#FCD17C} .fil0 {fill:#FFBD3A}  </style> </defs> <g id="Layer_x0020_1"> <metadata id="CorelCorpID_0Corel-Layer"/> <path class="fil0" d="M-15448 67675l528 18 104 35c22,315 -56,1163 44,1393 180,139 935,64 1212,65 199,52 25,-13 154,107l292 473c299,225 246,482 245,815 0,342 13,707 -5,1046l14 -1460c153,99 454,553 517,740 252,177 21,572 163,809 153,106 1527,106 1712,18 162,-186 96,-965 -24,-1212 -198,-410 -421,-415 -764,-623l112 -136c49,-150 195,-371 321,-461l38 -102c538,-84 363,-33 397,-608l112 -110c90,-263 308,-480 519,-636l116 -33c10,305 -54,1080 40,1315 160,105 1600,105 1752,-4 76,-178 55,-636 40,-845 -23,-320 -133,-361 -242,-602l358 1 524 1 107 3c24,300 8,613 8,917 0,454 -121,521 306,607l-78 98 -868 1258 -98 178c-73,-80 -144,-298 -262,-444 -423,-525 -1442,-487 -1545,-363 -79,185 -76,1633 7,1802 232,94 787,9 1081,53l-78 90 -325 473 -37 87c-266,58 -418,-45 -665,91 -60,284 84,867 -135,1046l-357 571c112,198 479,644 511,820l80 64c-218,185 -122,631 -122,898 0,1168 -148,1014 775,1014 510,0 598,-71 698,110l-1365 -8 1390 22c68,72 118,148 177,233 78,110 147,160 64,227 151,87 117,38 192,202l540 790c219,246 65,586 132,917 164,158 333,79 584,101l72 98c104,159 190,275 224,463l16 144c-216,-14 -498,-43 -715,-22 -286,27 -182,264 -212,494l-103 -2 -526 1c-397,14 -250,0 -504,-212 -340,-284 -721,-291 -1149,-284 -375,7 -214,129 -325,350l-78 -82c-207,-105 -600,-655 -682,-884l-56 -72c212,-261 116,-1141 -103,-1420 -365,-466 -672,-414 -1200,-487l-53 -109 -274 -356c-187,128 -519,839 -748,1015l-150 233c-223,-339 -172,-460 -623,-655 -296,-128 -825,-164 -1131,-81 -76,213 -84,1660 14,1821 227,108 702,6 980,59l-74 102c-95,148 -190,347 -328,444l-37 99c-155,44 -414,0 -509,55 -131,77 -79,268 -98,417l-104 23 -525 26c-311,3 -252,41 -462,-167 -361,-355 -1107,-406 -1465,-289l-19 439 -113 7c-128,2 -256,-14 -371,-76 -193,-104 -123,-130 -169,-287l-44 101 -32 -248c16,-261 408,-889 594,-1045l36 280c-35,-212 -45,-315 81,-455 33,205 -35,367 86,518 152,71 1539,56 1720,-3 109,-298 76,-975 -83,-1259 -198,-355 -444,-456 -829,-582l93 -131 300 -452 458 -27 -434 12c146,-262 273,24 517,-191 73,-302 -80,-565 138,-777l523 -773 123 -183 127 -184 320 -468 55 -110c980,-124 1499,445 1314,-975 -127,-973 -1593,-1072 -1777,-867 -99,166 -38,431 -61,628l-102 -167 -756 -1111 -75 -78c292,-163 191,-349 193,-702 1,-281 -21,-495 -189,-728 -408,-567 -1034,-447 -1331,-513l-39 -100c-167,-145 -567,-783 -721,-1006 -291,-423 -352,-1037 313,-1055 31,269 -38,1246 36,1397l-16 -1412 111 -1c0,279 -67,1309 72,1474 147,70 1509,69 1677,10 154,-171 97,-599 85,-840 -12,-248 -147,-424 -243,-643l358 -2zm3350 10187c276,477 1751,2715 2090,2961 590,429 1552,300 2269,300 638,0 1697,153 1962,-603 212,-606 -363,-1247 -690,-1728l-3099 -4551c-84,-185 263,-568 377,-733l2586 -3787c314,-452 891,-1143 810,-1697 -128,-872 -1179,-751 -1825,-752 -660,-1 -1805,-112 -2351,235 -530,338 -1669,2307 -2154,2940 -548,-662 -1551,-2505 -2127,-2909 -549,-385 -1645,-266 -2319,-266 -635,0 -1708,-139 -1892,687 -131,588 439,1241 764,1714l2072 3024c155,229 999,1333 934,1520 -47,134 -882,1295 -1032,1516 -345,506 -683,1016 -1028,1522 -344,505 -689,1009 -1033,1514 -331,486 -921,1136 -705,1748 268,762 1316,605 1960,605 714,0 1682,128 2270,-299 681,-495 1494,-2320 2161,-2962z"/> <path class="fil1" d="M-12166 74963c161,-67 833,-30 1055,-30 972,0 834,-86 834,1233 0,1025 124,890 -1236,890 -969,0 -828,116 -828,-1247 0,-258 -85,-738 174,-847zm-41 -2568c182,-95 816,-49 1056,-49 1003,0 875,-134 875,1205 0,1053 130,921 -1196,921 -997,0 -868,133 -868,-1199 0,-223 -80,-767 134,-879zm-4915 -2641c1848,116 1672,-457 1673,1381 0,272 88,667 -233,740l756 1111c-1,-822 180,-640 965,-640 853,0 1100,-129 1098,491 -8,1976 323,1554 -1492,1639l-320 468c279,-36 700,-12 995,-12 247,0 692,-73 789,178 65,169 54,1715 -37,1837 -157,210 -1797,92 -1823,82 -260,-99 -175,-551 -175,-784 0,-311 -2,-623 0,-934l-523 773c-1,283 103,879 -222,955l-458 27 -300 452c676,-12 970,-103 981,388 48,2127 155,1727 -1606,1737 -248,2 -354,31 -442,-213l-36 -280c-186,156 -578,784 -594,1045l76 147c47,157 -24,183 169,287 115,62 243,78 371,76 -32,-710 65,-603 1019,-603 978,0 1046,-107 1040,612l525 -26c0,-743 128,-534 748,-595 138,-98 233,-297 328,-444 -252,-17 -507,6 -754,-6 -310,-16 -323,-153 -323,-425 -2,-1542 -185,-1707 524,-1703 1519,8 1547,-183 1538,656 229,-175 561,-887 748,-1015l274 356c321,10 652,5 974,3 724,-4 593,71 593,1305 0,260 84,619 -156,781 82,229 475,779 682,884 -2,-287 71,-375 364,-384 247,-8 514,1 764,1 702,0 946,-162 928,610l526 -1c0,-214 -54,-525 214,-596 144,-38 609,-7 800,-19 -34,-188 -120,-304 -224,-463 -1015,78 -797,-220 -789,-1116l-540 -790c45,276 88,1729 -95,1861 -143,102 -1741,98 -1865,-15 -137,-126 -135,-1673 -62,-1887 92,-271 592,-172 826,-172 320,0 691,-18 1004,11 83,-67 14,-117 -64,-227 -60,-84 -109,-161 -177,-233l-1390 -22c-359,-138 -222,-715 -222,-1037 0,-321 -112,-826 157,-1041 -32,-176 -399,-623 -511,-820l357 -571 11 -1053c178,-250 520,-187 825,-171l325 -473c-236,18 -559,15 -799,9 -321,-9 -362,-85 -367,-394 -29,-1783 -108,-1737 610,-1734 1590,7 1467,-127 1451,804l868 -1258c-416,-40 -344,-294 -343,-626 0,-333 0,-666 0,-999l-524 -1c0,1811 206,1621 -970,1621 -274,0 -985,135 -1074,-195 -52,-191 -11,-990 -20,-1256 -211,155 -429,372 -519,636 -8,627 142,792 -547,820 -125,90 -272,311 -321,461 775,-42 869,-96 867,657 -4,1763 235,1453 -1558,1465 -696,5 -498,-387 -508,-980 -63,-187 -364,-641 -517,-740l-14 1460c-79,324 -265,262 -565,261 -1680,-10 -1487,140 -1486,-831 0,-640 -119,-1229 253,-1290 261,-42 1254,-17 1558,0l-292 -473c-270,17 -1335,89 -1470,-107 -92,-133 -54,-1263 -45,-1493l-528 -18c0,1897 228,1624 -1282,1625 -306,0 -650,94 -763,-210 -74,-151 -4,-1128 -36,-1397 -665,18 -604,632 -313,1055 154,224 554,862 721,1006z"/> <path class="fil2" d="M-14691 74217c65,-188 -779,-1291 -934,-1520l-2072 -3024c-326,-473 -895,-1126 -764,-1714 184,-825 1257,-686 1892,-687 674,0 1771,-119 2319,266 575,404 1578,2247 2127,2909 485,-633 1624,-2602 2154,-2940 545,-347 1691,-235 2351,-235 646,1 1697,-119 1825,752 81,554 -496,1245 -810,1697l-2586 3787c-114,165 -461,548 -377,733l3099 4551c326,480 902,1122 690,1728 -265,756 -1324,603 -1962,603 -717,0 -1679,129 -2269,-300 -339,-246 -1815,-2484 -2090,-2961 -667,642 -1481,2467 -2161,2962 -588,428 -1555,299 -2270,299 -645,0 -1692,157 -1960,-605 -215,-612 374,-1262 705,-1748 344,-505 689,-1009 1033,-1514 345,-506 683,-1016 1028,-1522 150,-221 985,-1381 1032,-1516zm2537 4128c684,744 1395,2458 2262,2877 569,276 1770,174 2434,173 723,-1 1541,93 1911,-689 327,-692 -158,-1284 -522,-1832l-2096 -3082c-1349,-1994 -1415,-1201 -145,-3082 348,-515 704,-1022 1052,-1537 348,-515 703,-1023 1052,-1537 358,-528 885,-1127 655,-1811 -264,-784 -1020,-861 -1745,-853 -647,7 -1918,-76 -2482,128 -658,238 -927,759 -1292,1300 -348,515 -695,1030 -1044,1545 -713,-777 -1351,-2424 -2318,-2822 -564,-232 -1809,-141 -2458,-149 -722,-9 -1506,22 -1802,796 -268,702 215,1245 581,1795l2103 3074c157,233 1017,1379 979,1559l-3114 4613c-377,565 -882,1097 -600,1838 305,803 1155,742 1853,745 645,2 1908,95 2459,-148 635,-280 867,-821 1242,-1349 304,-430 816,-1102 1035,-1553z"/> <path class="fil0" d="M-14775 71740c231,62 1513,58 1758,6 91,-300 74,-994 -78,-1269 -174,-314 -461,-496 -824,-575 -174,-38 -467,-42 -646,-32 -316,18 -248,205 -245,471 3,335 -45,1126 35,1398z"/> <path class="fil0" d="M-9597 79502c230,51 1522,52 1746,-2 102,-282 76,-988 -68,-1256 -171,-318 -452,-498 -814,-580 -181,-41 -466,-42 -655,-34 -330,14 -253,190 -250,477 3,328 -51,1134 41,1395z"/> <path class="fil0" d="M-12187 76910c204,57 1659,89 1754,-33 73,-94 53,-720 39,-867 -90,-992 -1646,-1132 -1803,-878 -70,115 -47,1616 10,1778z"/> <path class="fil0" d="M-12168 74317c205,86 655,39 897,39 203,0 787,92 865,-108 31,-79 22,-777 4,-884 -174,-992 -1685,-1042 -1800,-815 -14,28 -94,1569 35,1767z"/> <path class="fil0" d="M-14802 75129c-19,269 -56,1586 37,1749 101,115 1632,108 1730,2 45,-49 272,-943 -283,-1506 -275,-279 -1231,-486 -1484,-245z"/> <path class="fil2" d="M-9597 79502c-93,-261 -38,-1067 -41,-1395 -2,-287 -80,-463 250,-477 189,-8 475,-7 655,34 362,82 643,262 814,580 144,268 170,973 68,1256 -224,55 -1517,53 -1746,2zm1890 -1773c-74,-164 -40,-115 -192,-202 -313,-28 -685,-11 -1004,-11 -234,0 -734,-99 -826,172 -73,214 -75,1761 62,1887 123,113 1722,118 1865,15 184,-132 140,-1585 95,-1861z"/> <path class="fil2" d="M-12168 74317c-129,-198 -49,-1739 -35,-1767 115,-227 1626,-177 1800,815 19,107 27,805 -4,884 -78,200 -661,108 -865,108 -241,0 -691,47 -897,-39zm-39 -1922c-214,112 -134,656 -134,879 0,1332 -128,1199 868,1199 1326,0 1196,132 1196,-921 0,-1340 129,-1206 -875,-1205 -239,0 -874,-46 -1056,49z"/> <path class="fil2" d="M-12187 76910c-58,-162 -81,-1663 -10,-1778 157,-255 1713,-114 1803,878 13,147 33,773 -39,867 -95,123 -1549,91 -1754,33zm21 -1947c-260,109 -174,589 -174,847 0,1363 -141,1247 828,1247 1359,0 1236,135 1236,-890 0,-1319 137,-1234 -834,-1233 -223,0 -895,-37 -1055,30z"/> <path class="fil2" d="M-14775 71740c-80,-273 -32,-1063 -35,-1398 -2,-266 -71,-453 245,-471 179,-10 473,-6 646,32 363,79 649,260 824,575 153,275 169,968 78,1269 -245,53 -1527,56 -1758,-6zm1902 -115c17,-339 4,-704 5,-1046 0,-333 54,-590 -245,-815 -303,-17 -1297,-42 -1558,0 -372,60 -253,650 -253,1290 0,971 -194,821 1486,831 300,2 486,63 565,-261z"/> <path class="fil2" d="M-14802 75129c253,-241 1208,-35 1484,245 555,563 328,1457 283,1506 -98,106 -1630,113 -1730,-2 -93,-163 -56,-1480 -37,-1749zm0 0l-123 183c-2,311 0,623 0,934 0,234 -85,685 175,784 26,10 1666,128 1823,-82 91,-122 102,-1668 37,-1837 -98,-252 -543,-178 -789,-178 -295,0 -716,-24 -995,12l-127 184z"/> <path class="fil2" d="M-8588 71879l78 -90c-294,-43 -849,41 -1081,-53 -83,-169 -87,-1617 -7,-1802 103,-124 1122,-162 1545,363 117,146 189,364 262,444l98 -178c15,-931 138,-797 -1451,-804 -719,-3 -639,-48 -610,1734 5,310 47,386 367,394 241,6 563,9 799,-9z"/> <path class="fil2" d="M-14925 72986l102 167c22,-197 -39,-462 61,-628 184,-205 1650,-106 1777,867 185,1420 -334,851 -1314,975l-55 110c1814,-85 1484,337 1492,-1639 2,-620 -245,-491 -1098,-491 -784,0 -966,-182 -965,640z"/> <path class="fil2" d="M-13849 79650l74 -102c-278,-54 -753,49 -980,-59 -98,-160 -89,-1608 -14,-1821 306,-83 835,-47 1131,81 452,196 400,316 623,655l150 -233c9,-839 -19,-647 -1538,-656 -708,-4 -525,161 -524,1703 0,273 13,410 323,425 247,12 502,-11 754,6z"/> <path class="fil2" d="M-17495 79430c87,244 193,215 442,213 1761,-11 1654,389 1606,-1737 -11,-491 -305,-400 -981,-388l-93 131c385,126 631,227 829,582 158,284 192,962 83,1259 -181,59 -1568,74 -1720,3 -120,-151 -53,-313 -86,-518 -125,139 -116,243 -81,455z"/> <path class="fil2" d="M-12342 70907c9,594 -188,985 508,980 1793,-13 1554,297 1558,-1465 2,-754 -91,-700 -867,-657l-112 136c343,208 566,212 764,623 119,246 186,1025 24,1212 -185,88 -1559,88 -1712,-18 -142,-237 89,-632 -163,-809z"/> <path class="fil2" d="M-15681 71875c320,-73 233,-468 233,-740 -1,-1838 175,-1265 -1673,-1381l39 100c297,66 923,-53 1331,513 168,233 190,448 189,728 -1,352 99,539 -193,702l75 78z"/> <path class="fil2" d="M-10432 79601c239,-162 156,-521 156,-781 0,-1233 130,-1309 -593,-1305 -322,2 -653,7 -974,-3l53 109c528,73 834,21 1200,487 219,279 315,1160 103,1420l56 72z"/> <path class="fil2" d="M-9757 67848c9,266 -32,1065 20,1256 90,331 800,195 1074,195 1177,0 970,190 970,-1621l-358 -1c109,242 220,283 242,602 15,209 36,667 -40,845 -152,109 -1593,109 -1752,4 -94,-235 -31,-1010 -40,-1315l-116 33z"/> <path class="fil2" d="M-17493 69089c113,304 457,211 763,210 1509,-1 1282,272 1282,-1625l-358 2c97,219 232,395 243,643 11,241 69,669 -85,840 -169,59 -1530,59 -1677,-10 -139,-165 -72,-1195 -72,-1474l-111 1 16 1412z"/> <path class="fil2" d="M-17508 80705l113 -7 19 -439c358,-117 1105,-67 1465,289 211,208 152,170 462,167 6,-719 -62,-612 -1040,-612 -954,0 -1051,-107 -1019,603z"/> <path class="fil2" d="M-9750 80485l78 82c111,-220 -50,-343 325,-350 429,-8 810,0 1149,284 254,212 107,226 504,212 18,-772 -226,-610 -928,-610 -250,0 -516,-9 -764,-1 -294,9 -366,97 -364,384z"/> <path class="fil2" d="M-9530 77045l1365 8c-100,-181 -188,-110 -698,-110 -923,0 -775,154 -775,-1014 0,-266 -96,-713 122,-898l-80 -64c-270,215 -157,721 -157,1041 0,322 -137,899 222,1037z"/> <path class="fil2" d="M-13406 69293c-129,-120 45,-54 -154,-107 -277,0 -1033,75 -1212,-65 -100,-230 -22,-1078 -44,-1393l-104 -35c-9,230 -47,1360 45,1493 135,196 1200,124 1470,107z"/> <path class="fil2" d="M-6825 69305l78 -98c-428,-86 -307,-153 -306,-607 0,-304 16,-616 -8,-917l-107 -3c0,333 0,666 0,999 0,333 -73,586 343,626z"/> <path class="fil2" d="M-9749 73575c219,-179 74,-761 135,-1046 247,-136 398,-33 665,-91l37 -87c-305,-17 -647,-79 -825,171l-11 1053z"/> <path class="fil2" d="M-6378 79634l-72 -98c-251,-22 -420,57 -584,-101 -68,-331 87,-671 -132,-917 -8,895 -226,1194 789,1116z"/> <path class="fil2" d="M-7168 80712l103 2c30,-231 -75,-467 212,-494 218,-21 499,8 715,22l-16 -144c-191,11 -655,-20 -800,19 -268,71 -214,382 -214,596z"/> <path class="fil2" d="M-15670 77040c325,-76 220,-672 222,-955 -218,212 -65,475 -138,777 -244,215 -372,-72 -517,191l434 -12z"/> <path class="fil2" d="M-10822 69303c689,-29 539,-193 547,-820l-112 110c-34,575 140,523 -397,608l-38 102z"/> <path class="fil2" d="M-14925 80689l104 -23c20,-150 -32,-340 98,-417 95,-56 353,-11 509,-55l37 -99c-619,60 -748,-148 -748,595z"/> <polygon class="fil2" points="-18048,80343 -18125,80195 -18092,80444 "/> </g> </svg>